<?xml version="1.0" encoding="iso-8859-1"?>
<!-- Generator: Adobe Illustrator 19.0.0, SVG Export Plug-In . SVG Version: 6.00 Build 0)  -->
<svg version="1.1" id="Layer_1" xmlns="http://www.w3.org/2000/svg" xmlns:xlink="http://www.w3.org/1999/xlink" x="0px" y="0px"
	 viewBox="0 0 512.001 512.001" style="enable-background:new 0 0 512.001 512.001;" xml:space="preserve">
<g>
	<path style="fill:#9AD14B;" d="M463.539,92.045c10.794,27.673-2.893,58.873-30.566,69.667c-2.51-6.419-3.694-13.03-3.694-19.533
		C429.279,120.663,442.273,100.341,463.539,92.045z"/>
	<path style="fill:#9AD14B;" d="M367.024,0c22.437,19.485,24.84,53.458,5.355,75.895C360.126,65.256,353.85,50.29,353.85,35.24
		C353.85,22.736,358.19,10.185,367.024,0z"/>
	<path style="fill:#9AD14B;" d="M399.801,115.821c-22.473,19.425-56.446,16.963-75.883-5.511
		c10.173-8.786,22.689-13.101,35.156-13.101C374.16,97.209,389.162,103.521,399.801,115.821z"/>
</g>
<path style="fill:#B27214;" d="M448.592,271.497c-0.146,0-0.292-0.005-0.439-0.014c-3.623-0.239-6.367-3.37-6.128-6.993
	c6.119-92.856-47.114-180.115-132.461-217.134c-3.332-1.445-4.86-5.317-3.415-8.647c1.444-3.332,5.318-4.86,8.647-3.415
	c90.43,39.223,146.833,131.678,140.351,230.062C454.917,268.831,452.025,271.497,448.592,271.497z"/>
<path style="fill:#2BA5F7;" d="M456.811,205.391c-0.447,0.183-0.895,0.366-1.338,0.558c-25.302,11-40.322,37.465-36.678,64.935
	c6.259,47.11-11.201,91.282-42.564,121.376c-25.597,24.566-60.465,39.76-99.246,39.518c-3.849-0.024-7.646,0.748-11.122,2.259
	c-2.196,0.954-4.263,2.204-6.148,3.738c-27.046,22.012-37.297,49.296-41.045,63.965c-1.648,6.441-7.709,10.702-14.332,10.223
	c-46.234-3.382-69.237-31.038-79.459-49.164c-4.228-7.492-0.629-16.982,7.515-19.737c36.48-12.348,63.295-40.71,72.139-51.005
	c0.595-0.704,1.124-1.32,1.55-1.845c0.617-0.736,1.054-1.29,1.322-1.616c0.186-0.245,0.285-0.369,0.285-0.369
	c-4.869-0.646-9.604-1.385-14.198-2.232c-8.499-1.537-16.525-3.409-24.105-5.58c-10.481-2.971-20.098-6.515-28.914-10.501
	c-6.927-3.145-13.364-6.563-19.333-10.219c-11.778-7.194-21.762-15.296-30.225-23.966c-4.969-5.074-9.407-10.356-13.387-15.742
	c-6.346-8.619-11.497-17.559-15.675-26.523l-0.005-0.01c-2.583-5.538-4.777-11.069-6.661-16.56
	c-0.423-1.244-0.838-2.492-1.237-3.734c-3.287-10.335-5.463-20.428-6.864-29.815c-0.956-6.374-1.565-12.431-1.899-18.021
	c-1.319-21.047,0.912-35.409,0.912-35.409c22.679,14.173,46.736,19.025,70.33,19.362c43.469,0.604,85.358-14.084,114.019-13.913
	c44.203,0.273,86.023,37.203,86.023,37.203c0.043-0.088,0.077-0.173,0.124-0.253c18.423-39.557,39.128-52.058,56.211-53.96
	c4.88-0.542,9.469-0.219,13.627,0.595c0.01-0.005,0.01-0.005,0.01-0.005c13.171,2.562,21.952,9.971,21.952,9.971
	C430.357,211.155,456.811,205.391,456.811,205.391z"/>
<g>
	<path style="fill:#0F8DD3;" d="M386.433,178.944c-0.877,0.218-45.97,11.979-40.997,77.511l-28.841-24.148
		c18.423-39.557,39.128-52.058,56.211-53.96C377.686,177.807,382.274,178.13,386.433,178.944z"/>
	<path style="fill:#0F8DD3;" d="M223.681,389.135c62.665-10.605,113.431-30.388,96.702-67.226
		c-36.504-80.41-245.736-51.793-266.433-48.753c15.366,48.267,55.003,102.042,153.74,115.071c0,0-0.098,0.124-0.285,0.369
		c-0.268,0.328-0.705,0.881-1.322,1.616c-6.808,8.218-34.782,39.707-73.782,52.883c-8.112,2.741-11.626,12.247-7.422,19.706
		c10.221,18.129,33.226,45.779,79.456,49.159c6.622,0.484,12.688-3.782,14.33-10.216c3.748-14.677,14.003-41.958,41.045-63.968
		c4.865-3.96,10.998-6.037,17.271-5.998c38.781,0.243,73.65-14.952,99.246-39.518C305.723,418.387,233.773,392.97,223.681,389.135z"
		/>
</g>
<g>
	<path style="fill:#0569A0;" d="M116.439,246.691c-0.023,3.287-2.005,6.104-4.84,7.337c-1.004,0.436-2.098,0.666-3.257,0.667
		c-24.815-0.157-46.749-6.131-61.254-11.355c-0.956-6.374-1.565-12.431-1.899-18.021c3.391,1.394,7.679,3.017,12.675,4.65
		c13.037,4.247,30.949,8.505,50.583,8.62C112.88,238.615,116.47,242.241,116.439,246.691z"/>
	<path style="fill:#0569A0;" d="M120.651,279.591c1.301,3.988-0.663,8.248-4.434,9.887c-0.226,0.098-0.467,0.191-0.716,0.264
		c-14.064,4.593-36.177,4.643-53.648,3.716l-0.005-0.01c-2.583-5.538-4.777-11.069-6.661-16.56
		c18.042,1.298,42.274,1.813,55.311-2.449C114.732,273.057,119.272,275.368,120.651,279.591z"/>
	<path style="fill:#0569A0;" d="M130.243,327.207c-0.95,0.507-1.941,0.973-2.975,1.423c-10.485,4.558-24.417,6.413-36.353,7.095
		c-4.969-5.074-9.407-10.356-13.387-15.742c12.937,0.03,31.771-1.1,43.192-6.065c0.718-0.312,1.409-0.636,2.067-0.98
		c3.957-2.072,8.808-0.528,10.86,3.414C135.711,320.289,134.185,325.154,130.243,327.207z"/>
	<path style="fill:#0569A0;" d="M163.488,358.255c-4.183,3.141-10.072,6.181-16.392,8.93c-2.176,0.946-4.403,1.855-6.622,2.727
		c-6.927-3.145-13.364-6.563-19.333-10.219c11.649-3.847,25.984-9.295,32.687-14.316c3.556-2.671,8.6-1.947,11.27,1.609
		C167.768,350.542,167.046,355.584,163.488,358.255z"/>
	<path style="fill:#0569A0;" d="M208.752,375.532c-3.244,3.201-9.139,6.981-15.258,10.461c-8.499-1.537-16.525-3.409-24.105-5.58
		c9.887-4.802,23.963-12.303,28.05-16.339c3.168-3.133,8.267-3.09,11.386,0.072C211.952,367.305,211.919,372.399,208.752,375.532z"
		/>
</g>
<circle style="fill:#4D4D4D;" cx="379.083" cy="220" r="8.051"/>
<g>
</g>
<g>
</g>
<g>
</g>
<g>
</g>
<g>
</g>
<g>
</g>
<g>
</g>
<g>
</g>
<g>
</g>
<g>
</g>
<g>
</g>
<g>
</g>
<g>
</g>
<g>
</g>
<g>
</g>
</svg>
