<svg height="512pt" viewBox="-77 0 512 512.00349" width="512pt" xmlns="http://www.w3.org/2000/svg"><path d="m349.867188 477.871094h-341.332032v-469.335938h264.535156l76.796876 76.800782zm0 0" fill="#e2e4cc"/><path d="m273.070312 8.535156v76.800782h76.796876zm0 0" fill="#d0ccaa"/><path d="m8.535156 349.871094h341.332032v153.597656h-341.332032zm0 0" fill="#1cb826"/><g fill="#4d007e"><path d="m349.867188 512.003906h-341.332032c-4.710937 0-8.535156-3.824218-8.535156-8.535156v-494.933594c0-4.707031 3.824219-8.53124975 8.535156-8.53124975h264.535156c2.257813 0 4.433594.89453175 6.03125 2.49999975l76.800782 76.800782c1.601562 1.601562 2.5 3.769531 2.5 6.03125v418.132812c0 4.710938-3.824219 8.535156-8.535156 8.535156zm-332.796876-17.066406h324.265626v-406.066406l-71.800782-71.800782h-252.464844zm0 0"/><path d="m349.867188 93.871094h-76.796876c-4.710937 0-8.535156-3.824219-8.535156-8.535156v-76.800782c0-3.445312 2.082032-6.558594 5.265625-7.882812 3.183594-1.324219 6.851563-.5976565 9.300781 1.851562l76.800782 76.800782c2.441406 2.441406 3.171875 6.109374 1.851562 9.300781-1.324218 3.183593-4.4375 5.265625-7.886718 5.265625zm-68.265626-17.066406h47.667969l-47.667969-47.667969zm0 0"/><path d="m349.867188 512.003906h-341.332032c-4.710937 0-8.535156-3.824218-8.535156-8.535156v-153.597656c0-4.710938 3.824219-8.535156 8.535156-8.535156h341.332032c4.710937 0 8.535156 3.824218 8.535156 8.535156v153.597656c0 4.710938-3.824219 8.535156-8.535156 8.535156zm-332.796876-17.066406h324.265626v-136.535156h-324.265626zm0 0"/><path d="m183.46875 477.871094h-29.867188c-4.710937 0-8.53125-3.824219-8.53125-8.535156 0-4.710938 3.820313-8.53125 8.53125-8.53125h29.867188c7.058594 0 12.800781-5.742188 12.800781-12.800782s-5.742187-12.800781-12.800781-12.800781h-8.535156c-16.46875 0-29.863282-13.398437-29.863282-29.867187s13.394532-29.867188 29.863282-29.867188h29.867187c4.710938 0 8.535157 3.824219 8.535157 8.535156 0 4.710938-3.824219 8.53125-8.535157 8.53125h-29.867187c-7.054688 0-12.796875 5.746094-12.796875 12.800782 0 7.058593 5.742187 12.800781 12.796875 12.800781h8.535156c16.46875 0 29.867188 13.398437 29.867188 29.867187s-13.398438 29.867188-29.867188 29.867188zm0 0"/><path d="m281.601562 477.871094h-17.066406c-14.113281 0-25.601562-11.488282-25.601562-25.601563v-51.199219c0-14.113281 11.488281-25.601562 25.601562-25.601562h17.066406c14.113282 0 25.601563 11.488281 25.601563 25.601562v51.207032c0 14.105468-11.488281 25.59375-25.601563 25.59375zm-17.066406-85.335938c-4.703125 0-8.535156 3.824219-8.535156 8.535156v51.207032c0 4.703125 3.824219 8.535156 8.535156 8.535156h17.066406c4.703126 0 8.535157-3.824219 8.535157-8.535156v-51.207032c0-4.703124-3.824219-8.535156-8.535157-8.535156zm0 0"/><path d="m85.335938 477.871094c-4.710938 0-8.535157-3.824219-8.535157-8.535156v-85.332032c0-4.710937 3.824219-8.535156 8.535157-8.535156 4.710937 0 8.53125 3.824219 8.53125 8.535156v85.332032c0 4.710937-3.820313 8.535156-8.53125 8.535156zm0 0"/><path d="m110.933594 477.871094h-51.199219c-4.710937 0-8.53125-3.824219-8.53125-8.535156 0-4.710938 3.820313-8.53125 8.53125-8.53125h51.199219c4.710937 0 8.535156 3.820312 8.535156 8.53125 0 4.710937-3.824219 8.535156-8.535156 8.535156zm0 0"/><path d="m110.933594 392.535156h-51.199219c-4.710937 0-8.53125-3.820312-8.53125-8.53125 0-4.710937 3.820313-8.535156 8.53125-8.535156h51.199219c4.710937 0 8.535156 3.824219 8.535156 8.535156 0 4.710938-3.824219 8.53125-8.535156 8.53125zm0 0"/><path d="m179.203125 315.738281c-56.464844 0-102.402344-45.9375-102.402344-102.402343 0-56.464844 45.9375-102.398438 102.402344-102.398438s102.398437 45.933594 102.398437 102.398438c0 56.464843-45.933593 102.402343-102.398437 102.402343zm0-187.734375c-47.054687 0-85.335937 38.28125-85.335937 85.332032 0 47.054687 38.28125 85.335937 85.335937 85.335937 47.050781 0 85.332031-38.28125 85.332031-85.335937 0-47.050782-38.28125-85.332032-85.332031-85.332032zm0 0"/><path d="m179.203125 247.46875c-18.824219 0-34.132813-15.308594-34.132813-34.132812 0-18.824219 15.308594-34.132813 34.132813-34.132813s34.132813 15.308594 34.132813 34.132813c0 18.824218-15.308594 34.132812-34.132813 34.132812zm0-51.199219c-9.414063 0-17.066406 7.65625-17.066406 17.066407 0 9.414062 7.652343 17.066406 17.066406 17.066406 9.410156 0 17.066406-7.652344 17.066406-17.066406 0-9.410157-7.65625-17.066407-17.066406-17.066407zm0 0"/><path d="m119.46875 221.871094c-4.710938 0-8.535156-3.824219-8.535156-8.535156 0-37.640626 30.628906-68.265626 68.269531-68.265626 4.710937 0 8.53125 3.824219 8.53125 8.53125 0 4.710938-3.820313 8.535157-8.53125 8.535157-28.238281 0-51.203125 22.964843-51.203125 51.199219 0 4.710937-3.820312 8.535156-8.53125 8.535156zm0 0"/><path d="m179.203125 281.601562c-4.710937 0-8.535156-3.820312-8.535156-8.53125 0-4.710937 3.824219-8.535156 8.535156-8.535156 28.234375 0 51.199219-22.960937 51.199219-51.199218 0-4.710938 3.824218-8.53125 8.53125-8.53125 4.710937 0 8.535156 3.820312 8.535156 8.53125 0 37.640624-30.625 68.265624-68.265625 68.265624zm0 0"/></g></svg>