<svg height="452pt" viewBox="-54 0 452 452.896" width="452pt" xmlns="http://www.w3.org/2000/svg"><path d="m53.65625 174.144531c-10.601562-.011719-19.195312-8.605469-19.207031-19.207031v-140.941406h-.792969c-10.601562.011718-19.195312 8.605468-19.207031 19.207031v141.738281c.011719 10.601563 8.605469 19.191406 19.207031 19.203125h2.757812c10.605469-.011719 19.195313-8.601562 19.210938-19.203125v-.796875zm0 0" fill="#d4e1f4"/><path d="m83.492188 174.144531c3.996093-5.605469 6.140624-12.320312 6.132812-19.207031v-79.214844h-.792969c-10.601562.015625-19.195312 8.605469-19.207031 19.210938v80.007812c.007812 6.882813-2.136719 13.601563-6.132812 19.207032h152.316406c10.601562-.011719 19.195312-8.605469 19.207031-19.207032v-.796875zm0 0" fill="#d4e1f4"/><path d="m249.015625 174.941406v-80.007812c-.023437-17.933594-14.257813-32.617188-32.179687-33.195313-.902344-17.667969-15.476563-31.535156-33.167969-31.558593h-48.988281l-17.710938-19.378907c-6.300781-6.875-15.191406-10.7929685-24.515625-10.800781h-58.800781c-18.328125.0234375-33.183594 14.875-33.203125 33.203125v141.738281c.019531 18.328125 14.875 33.183594 33.207031 33.203125h182.152344c18.328125-.019531 33.183594-14.875 33.207031-33.203125zm-193.390625 0c-.015625 10.601563-8.605469 19.191406-19.210938 19.203125h-2.757812c-10.601562-.011719-19.195312-8.605469-19.207031-19.207031v-141.734375c.011719-10.601563 8.605469-19.195313 19.207031-19.207031h58.800781c5.394531.003906 10.535157 2.273437 14.179688 6.25l17.847656 19.527344c2.566406 2.804687 6.195313 4.402343 10 4.40625h49.183594c9.957031.015624 18.257812 7.625 19.136719 17.542968h-113.972657c-18.332031.023438-33.1875 14.878906-33.207031 33.210938zm14 0v-80.007812c.011719-10.605469 8.605469-19.195313 19.207031-19.210938h126.976563c10.601562.011719 19.195312 8.605469 19.207031 19.210938v80.007812c-.011719 10.601563-8.605469 19.191406-19.207031 19.203125h-152.316406c3.996093-5.605469 6.140624-12.320312 6.132812-19.203125zm0 0" fill="#0635c9"/><path d="m115.914062 272.8125v109.195312c.027344 25.945313 21.054688 46.96875 47 47h117.890626c3.300781 13.667969 16.019531 23.886719 31.179687 23.886719 17.65625 0 32.019531-13.855469 32.019531-30.886719 0-17.035156-14.363281-30.894531-32.019531-30.894531-15.160156 0-27.882813 10.222657-31.179687 23.894531h-117.890626c-18.21875-.023437-32.980468-14.785156-33-33v-53h70.890626c3.300781 13.667969 16.019531 23.886719 31.179687 23.886719 17.65625 0 32.019531-13.855469 32.019531-30.886719 0-17.035156-14.363281-30.894531-32.019531-30.894531-15.160156 0-27.882813 10.222657-31.179687 23.894531h-70.890626v-42.195312c14.300782-3.089844 25.015626-15.421875 25.015626-30.136719 0-17.03125-14.363282-30.890625-32.015626-30.890625-17.65625 0-32.019531 13.859375-32.019531 30.890625 0 14.714844 10.71875 27.046875 25.019531 30.136719zm196.070313 132.300781c9.933594 0 18.019531 7.578125 18.019531 16.890625s-8.085937 16.890625-18.019531 16.890625-18.019531-7.578125-18.019531-16.890625 8.082031-16.890625 18.019531-16.890625zm-80-100c9.933594 0 18.019531 7.578125 18.019531 16.890625s-8.085937 16.890625-18.019531 16.890625-18.019531-7.578125-18.019531-16.890625 8.082031-16.890625 18.019531-16.890625zm-109.070313-79.328125c9.933594 0 18.015626 7.578125 18.015626 16.890625s-8.082032 16.890625-18.015626 16.890625c-9.933593 0-18.019531-7.578125-18.019531-16.890625 0-9.316406 8.082031-16.890625 18.019531-16.890625zm0 0" fill="#1ae5be"/></svg>