<svg height="438pt" viewBox="-54 0 438 438.9" width="438pt" xmlns="http://www.w3.org/2000/svg"><g fill="#2561a1"><path d="m115.921875 308.011719h86.136719v14h-86.136719zm0 0"/><path d="m282.058594 422.011719h-126.136719c-25.945313-.03125-46.972656-21.054688-47-47v-52.222657h14v52.222657c.019531 18.214843 14.78125 32.976562 33 33h126.136719zm0 0"/><path d="m108.921875 252.789062h14v70h-14zm0 0"/></g><path d="m330.011719 415.011719c0-13.195313-11.203125-23.890625-25.023438-23.890625-13.816406 0-25.019531 10.695312-25.019531 23.890625 0 13.191406 11.203125 23.886719 25.019531 23.886719 13.820313 0 25.023438-10.695313 25.023438-23.886719zm0 0" fill="#6fe3ff"/><path d="m250.011719 315.011719c0-13.195313-11.203125-23.890625-25.023438-23.890625-13.816406 0-25.019531 10.695312-25.019531 23.890625 0 13.191406 11.203125 23.886719 25.019531 23.886719 13.820313 0 25.023438-10.695313 25.023438-23.886719zm0 0" fill="#6fe3ff"/><path d="m235.019531 87.941406v80c.007813 14.476563-11.730469 26.214844-26.210937 26.207032h-179.386719c14.476563.007812 26.214844-11.730469 26.207031-26.207032v-80c-.003906-14.480468 11.734375-26.21875 26.210938-26.210937h126.96875c14.480468-.007813 26.21875 11.730469 26.210937 26.210937zm0 0" fill="#e48e66"/><path d="m202.878906 56.390625v5.339844h-121.039062c-14.476563-.007813-26.214844 11.730469-26.210938 26.210937v80c.007813 14.476563-11.730468 26.214844-26.207031 26.207032h-2.761719c-14.476562 0-26.210937-11.734376-26.210937-26.207032v-141.730468c0-14.476563 11.734375-26.210938 26.210937-26.210938h58.800782c7.359374-.00390625 14.378906 3.09375 19.339843 8.53125l17.847657 19.519531c1.242187 1.359375 3 2.132813 4.839843 2.128907h49.183594c14.472656 0 26.207031 11.734374 26.207031 26.210937zm0 0" fill="#f8ec7d"/><path d="m140.941406 235.679688c0-13.195313-11.203125-23.890626-25.019531-23.890626-13.820313 0-25.023437 10.695313-25.023437 23.890626 0 13.195312 11.203124 23.890624 25.023437 23.890624 13.816406 0 25.019531-10.695312 25.019531-23.890624zm0 0" fill="#6fe3ff"/></svg>