<?xml version="1.0" encoding="iso-8859-1"?>
<!-- Generator: Adobe Illustrator 19.0.0, SVG Export Plug-In . SVG Version: 6.00 Build 0)  -->
<svg version="1.1" id="Capa_1" xmlns="http://www.w3.org/2000/svg" xmlns:xlink="http://www.w3.org/1999/xlink" x="0px" y="0px"
	 viewBox="0 0 512 512" style="enable-background:new 0 0 512 512;" xml:space="preserve">
<polygon style="fill:#FABE5C;" points="181,0 30,0 30,135 256,75 "/>
<polygon style="fill:#5C6F74;" points="255,432 30,432 30,512 60,512 60,462 135.5,462 135.5,512 165.5,512 165.5,462 255,462 "/>
<g>
	<polygon style="fill:#203F49;" points="255,432 255,462 346.5,462 346.5,512 376.5,512 376.5,462 452,462 452,512 482,512 482,432 
			"/>
	<rect x="241" y="362" style="fill:#203F49;" width="30" height="150"/>
</g>
<path style="fill:#FABE5C;" d="M482,135c0-33-27-60-60-60H256l-60,151l60,151h226V135z"/>
<path style="fill:#FBDF65;" d="M90,75c-33,0-60,27-60,60v242h226V75H90z"/>
<g>
</g>
<g>
</g>
<g>
</g>
<g>
</g>
<g>
</g>
<g>
</g>
<g>
</g>
<g>
</g>
<g>
</g>
<g>
</g>
<g>
</g>
<g>
</g>
<g>
</g>
<g>
</g>
<g>
</g>
</svg>
