<?xml version="1.0" encoding="iso-8859-1"?>
<!-- Generator: Adobe Illustrator 19.0.0, SVG Export Plug-In . SVG Version: 6.00 Build 0)  -->
<svg version="1.1" id="Layer_1" xmlns="http://www.w3.org/2000/svg" xmlns:xlink="http://www.w3.org/1999/xlink" x="0px" y="0px"
	 viewBox="0 0 490.05 490.05" style="enable-background:new 0 0 490.05 490.05;" xml:space="preserve">
<g>
	<g>
		<path style="fill:#2C2F33;" d="M250.15,485.85l24.5-10.1c13.1-5.4,19.3-20.5,13.9-33.5l-6.3-15.2c12.3-9.1,23-19.9,32.2-32.2
			l15.2,6.3c6.3,2.6,13.3,2.6,19.6,0c6.3-2.6,11.3-7.6,13.9-13.9l10.2-24.5c5.4-13.1-0.8-28.1-13.9-33.5l-22.5-9.3
			c-5.1-2.1-10.8,0.3-12.9,5.4s0.3,10.8,5.4,12.9l22.5,9.3c3,1.2,4.4,4.7,3.2,7.7l-10.2,24.5c-0.6,1.4-1.7,2.6-3.2,3.2
			c-1.4,0.6-3,0.6-4.5,0l-22.5-9.3c-4.4-1.8-9.4-0.3-12,3.6c-10.1,15.2-22.9,28-38.1,38.1c-3.9,2.6-5.5,7.7-3.7,12l9.3,22.5
			c1.2,3-0.2,6.4-3.2,7.7l-24.5,10.1c-1.4,0.6-3,0.6-4.5,0c-1.4-0.6-2.6-1.7-3.2-3.2l-9.3-22.5c-1.8-4.4-6.4-6.9-11.1-5.9
			c-17.8,3.6-36,3.5-53.8,0c-4.6-0.9-9.3,1.6-11.1,5.9l-9.3,22.5c-1.2,3-4.7,4.4-7.7,3.2l-24.5-10.2c-1.4-0.6-2.6-1.7-3.2-3.2
			c-0.6-1.4-0.6-3,0-4.5l9.3-22.5c1.8-4.4,0.3-9.4-3.6-12c-15.2-10.1-28-22.9-38.1-38.1c-2.6-3.9-7.7-5.5-12-3.7l-22.5,9.3
			c-1.5,0.6-3,0.6-4.5,0c-1.4-0.6-2.6-1.7-3.2-3.2l-10.1-24.5c-0.6-1.4-0.6-3,0-4.5c0.6-1.4,1.7-2.6,3.2-3.2l22.5-9.3
			c4.4-1.8,6.8-6.4,5.9-11.1c-3.6-17.8-3.5-36,0-53.8c0.9-4.6-1.6-9.3-5.9-11.1l-22.5-9.3c-3-1.2-4.4-4.7-3.2-7.7l10.2-24.5
			c1.2-3,4.7-4.4,7.7-3.2l22.5,9.3c4.4,1.8,9.4,0.3,12-3.6c10.1-15.2,22.9-28,38.1-38.1c3.9-2.6,5.5-7.7,3.7-12l-9.3-22.5
			c-0.6-1.4-0.6-3,0-4.5c0.6-1.4,1.7-2.6,3.2-3.2l24.5-10.1c1.4-0.6,3-0.6,4.5,0c1.4,0.6,2.6,1.7,3.2,3.2l9.3,22.5
			c2.1,5.1,7.9,7.5,12.9,5.4c5.1-2.1,7.5-7.9,5.4-12.9l-9.3-22.5c-2.6-6.3-7.6-11.3-13.9-13.9c-3.2-1.3-6.5-2-9.8-2s-6.7,0.7-9.8,2
			l-24.5,10.1c-6.3,2.6-11.3,7.6-13.9,13.9c-2.6,6.3-2.6,13.3,0,19.6l6.3,15.2c-12.3,9.1-23,19.9-32.2,32.2l-15.2-6.3
			c-13.1-5.4-28.1,0.8-33.5,13.9l-10.3,24.5c-5.4,13.1,0.8,28.1,13.9,33.5l15.2,6.3c-2.2,15.1-2.2,30.4,0,45.5l-15.2,6.3
			c-6.3,2.6-11.3,7.6-13.9,13.9s-2.6,13.3,0,19.6l10.1,24.5c2.6,6.3,7.6,11.3,13.9,13.9s13.3,2.6,19.6,0l15.2-6.3
			c9.1,12.3,19.9,23,32.2,32.2l-6.3,15.2c-2.6,6.3-2.6,13.3,0,19.6c2.6,6.3,7.6,11.3,13.9,13.9l24.5,10.2
			c13.1,5.4,28.1-0.8,33.5-13.9l6.3-15.2c15.1,2.2,30.4,2.2,45.5,0l6.3,15.2c2.6,6.3,7.6,11.3,13.9,13.9
			C236.85,488.45,243.85,488.45,250.15,485.85z"/>
		<path style="fill:#2C2F33;" d="M107.15,300.75c0.3,44.2,36.4,79.9,80.5,79.9c0.2,0,0.4,0,0.6,0c21.5-0.2,41.7-8.7,56.8-24
			c15.1-15.3,23.3-35.6,23.2-57.1c0-5.4-4.5-9.8-9.9-9.8h-0.1c-5.5,0-9.9,4.5-9.8,10c0.1,16.2-6.1,31.5-17.5,43.1
			s-26.6,18-42.8,18.1c-0.1,0-0.3,0-0.4,0c-33.3,0-60.5-27-60.7-60.3c-0.2-33.5,26.8-60.9,60.3-61.2c5.5,0,9.9-4.5,9.8-10
			c0-5.4-4.5-9.8-9.9-9.8c0,0,0,0-0.1,0C142.65,219.95,106.85,256.35,107.15,300.75z"/>
		<path style="fill:#3C92CA;" d="M354.75,2.25h-19.3c-11.8,0-21.4,9.6-21.4,21.4v9.9c-9.6,2.6-18.8,6.4-27.4,11.4l-7-7
			c-4-4-9.4-6.3-15.1-6.3s-11.1,2.2-15.1,6.3l-13.6,13.6c-4,4-6.3,9.4-6.3,15.1s2.2,11.1,6.3,15.1l7,7c-5,8.6-8.8,17.8-11.4,27.4
			h-9.9c-11.8,0-21.4,9.6-21.4,21.4v19.3c0,11.8,9.6,21.4,21.4,21.4h9.9c2.6,9.6,6.4,18.8,11.4,27.4l-7,7c-4,4-6.3,9.4-6.3,15.1
			s2.2,11.1,6.3,15.1l13.6,13.6c4,4,9.4,6.3,15.1,6.3s11.1-2.2,15.1-6.3l7-7c8.6,5,17.8,8.8,27.4,11.4v9.9
			c0,11.8,9.6,21.4,21.4,21.4h19.3c11.8,0,21.4-9.6,21.4-21.4v-9.9c9.6-2.6,18.8-6.4,27.4-11.4l7,7c4,4,9.4,6.3,15.1,6.3
			s11.1-2.2,15.1-6.3l13.6-13.6c8.3-8.3,8.3-21.9,0-30.2l-7-7c5-8.6,8.8-17.8,11.4-27.4h9.9c11.8,0,21.4-9.6,21.4-21.4v-19.3
			c0-11.8-9.6-21.4-21.4-21.4h-9.9c-2.6-9.6-6.4-18.8-11.4-27.4l7-7c8.3-8.3,8.3-21.9,0-30.2l-13.6-13.6c-4-4-9.4-6.3-15.1-6.3
			s-11.1,2.2-15.1,6.3l-7,7c-8.6-5-17.8-8.8-27.4-11.4v-9.9C376.05,11.85,366.45,2.25,354.75,2.25z M399.45,65.65
			c1.7,1.1,3.6,1.7,5.5,1.7c2.6,0,5.1-1,7-2.9l12.5-12.5c0.4-0.4,0.8-0.5,1.1-0.5s0.7,0.1,1.1,0.5l13.6,13.6c0.6,0.6,0.6,1.6,0,2.2
			l-12.5,12.5c-3.3,3.3-3.9,8.6-1.2,12.5c7.2,10.7,12.1,22.6,14.6,35.2c0.9,4.6,5,8,9.7,8h17.7c0.9,0,1.6,0.7,1.6,1.6v19.3
			c0,0.9-0.7,1.6-1.6,1.6h-17.7c-4.7,0-8.8,3.3-9.7,8c-2.5,12.6-7.4,24.5-14.6,35.2c-2.6,3.9-2.1,9.2,1.2,12.5l12.5,12.5
			c0.6,0.6,0.6,1.6,0,2.2l-13.6,13.6c-0.4,0.4-0.8,0.5-1.1,0.5s-0.7-0.1-1.1-0.5l-12.5-12.7c-3.3-3.3-8.6-3.9-12.5-1.2
			c-10.7,7.2-22.6,12.1-35.2,14.6c-4.6,0.9-8,5-8,9.7v17.7c0,0.9-0.7,1.6-1.6,1.6h-19.3c-0.9,0-1.6-0.7-1.6-1.6v-17.7
			c0-4.7-3.3-8.8-8-9.7c-12.6-2.5-24.5-7.4-35.2-14.6c-3.9-2.6-9.2-2.1-12.5,1.2l-12.5,12.5c-0.4,0.4-0.8,0.5-1.1,0.5
			s-0.7-0.1-1.1-0.5l-13.6-13.6c-0.4-0.4-0.5-0.8-0.5-1.1s0.1-0.7,0.5-1.1l12.5-12.5c3.3-3.3,3.9-8.6,1.2-12.5
			c-7.2-10.7-12.1-22.6-14.6-35.2c-0.9-4.6-5-8-9.7-8h-17.7c-0.9,0-1.6-0.7-1.6-1.6v-19.3c0-0.9,0.7-1.6,1.6-1.6h17.7
			c4.7,0,8.8-3.3,9.7-8c2.5-12.6,7.4-24.5,14.6-35.2c2.6-3.9,2.1-9.2-1.2-12.5l-12.5-12.5c-0.4-0.4-0.5-0.8-0.5-1.1s0.1-0.7,0.5-1.1
			l13.6-13.6c0.4-0.4,0.8-0.5,1.1-0.5s0.7,0.1,1.1,0.5l12.5,12.5c3.3,3.3,8.6,3.9,12.5,1.2c10.7-7.2,22.6-12.1,35.2-14.6
			c4.6-0.9,8-5,8-9.7v-17.5c0-0.9,0.7-1.6,1.6-1.6h19.3c0.9,0,1.6,0.7,1.6,1.6v17.7c0,4.7,3.3,8.8,8,9.7
			C376.85,53.55,388.75,58.45,399.45,65.65z"/>
		<path style="fill:#3C92CA;" d="M286.35,147.05c0,32.4,26.4,58.8,58.8,58.8s58.8-26.4,58.8-58.8s-26.4-58.8-58.8-58.8
			S286.35,114.65,286.35,147.05z M384.05,147.05c0,21.5-17.5,39-39,39s-39-17.5-39-39s17.5-39,39-39S384.05,125.65,384.05,147.05z"
			/>
	</g>
</g>
<g>
</g>
<g>
</g>
<g>
</g>
<g>
</g>
<g>
</g>
<g>
</g>
<g>
</g>
<g>
</g>
<g>
</g>
<g>
</g>
<g>
</g>
<g>
</g>
<g>
</g>
<g>
</g>
<g>
</g>
</svg>
