<?xml version="1.0" encoding="iso-8859-1"?>
<!-- Generator: Adobe Illustrator 19.0.0, SVG Export Plug-In . SVG Version: 6.00 Build 0)  -->
<svg version="1.1" id="Layer_1" xmlns="http://www.w3.org/2000/svg" xmlns:xlink="http://www.w3.org/1999/xlink" x="0px" y="0px"
	 viewBox="0 0 469.333 469.333" style="enable-background:new 0 0 469.333 469.333;" xml:space="preserve">
<g>
	<g>
		<g>
			<path d="M433.739,124.224c-0.448-0.363-0.939-0.683-1.451-0.981l-37.611-20.971V96c0-18.24-22.933-32-53.333-32
				c-4.672,0-9.088,0.427-13.376,1.045l-39.957-22.293V32c0-18.24-22.933-32-53.333-32s-53.333,13.76-53.333,32v10.752
				l-39.957,22.293C137.12,64.427,132.704,64,128.011,64c-30.379,0-53.333,13.76-53.333,32v6.251l-37.589,20.971
				c-0.512,0.277-0.96,0.597-1.408,0.96c-15.467,8.917-25.003,24.533-25.003,41.152v160c0,16.64,9.536,32.235,25.024,41.173
				c0.448,0.341,0.917,0.661,1.408,0.939l171.307,95.573c0.704,0.384,1.429,0.683,2.219,0.896
				c7.659,3.605,15.765,5.419,24.043,5.419c8.256,0,16.299-1.792,23.915-5.355c0.811-0.213,1.6-0.533,2.347-0.96l171.307-95.573
				c0.491-0.256,0.939-0.576,1.387-0.917c15.488-8.917,25.024-24.533,25.024-41.173v-160
				C458.677,148.736,449.184,133.141,433.739,124.224z M341.344,85.333c20.651,0,32,8,32,10.667c0,2.667-11.328,10.667-32,10.667
				c-20.651,0-32-8-32-10.667C309.344,93.333,320.715,85.333,341.344,85.333z M309.344,121.941c17.579,7.68,46.421,7.68,64,0v16.725
				c0,2.667-11.328,10.667-32,10.667c-20.651,0-32-8-32-10.667V121.941z M234.677,21.333c20.651,0,32,8,32,10.667
				c0,2.667-11.328,10.667-32,10.667c-20.651,0-32-8-32-10.667C202.677,29.333,214.048,21.333,234.677,21.333z M202.677,57.941
				c17.579,7.68,46.421,7.68,64,0v16.725c0,2.667-11.328,10.667-32,10.667c-20.651,0-32-8-32-10.667V57.941z M128.011,85.333
				c20.651,0,32,8,32,10.667c0,2.667-11.328,10.667-32,10.667c-20.629,0-32-8-32-10.667
				C96.011,93.333,107.381,85.333,128.011,85.333z M96.011,121.941c17.579,7.68,46.421,7.68,64,0v16.725
				c0,2.667-11.328,10.667-32,10.667c-20.629,0-32-8-32-10.667V121.941z M437.344,325.333c0,9.451-5.739,18.133-15.296,23.232
				c-0.576,0.299-1.109,0.661-1.6,1.045l-168.277,93.888c-0.469,0.149-0.939,0.341-1.387,0.576c-10.325,5.184-21.867,5.184-32.171,0
				c-0.448-0.213-0.896-0.405-1.344-0.555L48.971,349.632c-0.512-0.405-1.067-0.768-1.643-1.067
				c-9.557-5.099-15.317-13.781-15.317-23.232v-160c0-9.451,5.739-18.133,15.317-23.253c0.597-0.299,1.152-0.661,1.643-1.067
				l25.707-14.336v11.989c0,18.24,22.955,32,53.333,32s53.333-13.76,53.333-32V96c0-8.427-5.056-15.808-13.312-21.397l13.312-7.445
				v7.509c0,18.24,22.955,32,53.333,32s53.333-13.76,53.333-32v-7.509l13.312,7.424c-8.256,5.611-13.312,12.992-13.312,21.419
				v42.667c0,18.24,22.955,32,53.333,32s53.333-13.76,53.333-32v-11.968l25.664,14.315c0.533,0.405,1.088,0.768,1.685,1.088
				c9.6,5.099,15.317,13.781,15.317,23.232V325.333z"/>
			<path d="M288.011,202.667V160c0-18.24-22.933-32-53.333-32s-53.333,13.76-53.333,32v42.667c0,18.24,22.933,32,53.333,32
				S288.011,220.907,288.011,202.667z M266.677,202.667c0,2.667-11.349,10.667-32,10.667s-32-8-32-10.667v-16.725
				c17.579,7.68,46.421,7.68,64,0V202.667z M234.677,170.667c-20.651,0-32-8-32-10.667c0-2.667,11.371-10.667,32-10.667
				c20.651,0,32,8,32,10.667C266.677,162.667,255.349,170.667,234.677,170.667z"/>
			<path d="M196.789,246.443l-128-64c-5.269-2.603-11.669-0.512-14.293,4.779c-2.624,5.269-0.491,11.669,4.779,14.315l128,64
				c1.515,0.768,3.136,1.131,4.736,1.131c3.904,0,7.659-2.155,9.557-5.909C204.192,255.488,202.059,249.088,196.789,246.443z"/>
			<path d="M234.677,288c-5.888,0-10.667,4.779-10.667,10.667V416c0,5.888,4.779,10.667,10.667,10.667s10.667-4.779,10.667-10.667
				V298.667C245.344,292.779,240.565,288,234.677,288z"/>
			<path d="M400.565,182.464l-128,64c-5.269,2.645-7.424,9.045-4.779,14.315c1.899,3.733,5.653,5.888,9.557,5.888
				c1.621,0,3.243-0.363,4.757-1.109l128-64c5.269-2.645,7.424-9.045,4.779-14.315C412.235,181.952,405.856,179.861,400.565,182.464
				z"/>
		</g>
	</g>
</g>
<g>
</g>
<g>
</g>
<g>
</g>
<g>
</g>
<g>
</g>
<g>
</g>
<g>
</g>
<g>
</g>
<g>
</g>
<g>
</g>
<g>
</g>
<g>
</g>
<g>
</g>
<g>
</g>
<g>
</g>
</svg>
