<svg height="512pt" viewBox="-79 0 512 512" width="512pt" xmlns="http://www.w3.org/2000/svg"><path d="m353.101562 485.515625h-353.101562v-485.515625h273.65625l79.445312 79.449219zm0 0" fill="#e3e4d8"/><path d="m273.65625 0v79.449219h79.445312zm0 0" fill="#d0cebd"/><path d="m0 353.101562h353.101562v158.898438h-353.101562zm0 0" fill="#6ab86f"/><g fill="#fff"><path d="m180.964844 485.515625h-30.894532c-4.875 0-8.828124-3.953125-8.828124-8.824219 0-4.875 3.953124-8.828125 8.828124-8.828125h30.894532c7.300781 0 13.242187-5.941406 13.242187-13.242187 0-7.300782-5.941406-13.242188-13.242187-13.242188h-8.828125c-17.035157 0-30.894531-13.859375-30.894531-30.894531 0-17.039063 13.859374-30.898437 30.894531-30.898437h30.898437c4.871094 0 8.828125 3.953124 8.828125 8.828124 0 4.871094-3.957031 8.828126-8.828125 8.828126h-30.898437c-7.300781 0-13.238281 5.941406-13.238281 13.242187 0 7.296875 5.9375 13.238281 13.238281 13.238281h8.828125c17.039062 0 30.898437 13.859375 30.898437 30.898438 0 17.035156-13.859375 30.894531-30.898437 30.894531zm0 0"/><path d="m282.484375 485.515625h-17.65625c-14.601563 0-26.484375-11.878906-26.484375-26.480469v-52.964844c0-14.601562 11.882812-26.484374 26.484375-26.484374h17.65625c14.597656 0 26.480469 11.882812 26.480469 26.484374v52.964844c0 14.601563-11.882813 26.480469-26.480469 26.480469zm-17.65625-88.273437c-4.863281 0-8.828125 3.953124-8.828125 8.828124v52.964844c0 4.863282 3.953125 8.828125 8.828125 8.828125h17.65625c4.863281 0 8.824219-3.957031 8.824219-8.828125v-52.964844c0-4.867187-3.953125-8.828124-8.824219-8.828124zm0 0"/><path d="m79.449219 485.515625c-4.875 0-8.828125-3.953125-8.828125-8.824219v-88.277344c0-4.875 3.953125-8.828124 8.828125-8.828124 4.871093 0 8.828125 3.953124 8.828125 8.828124v88.277344c0 4.871094-3.957032 8.824219-8.828125 8.824219zm0 0"/><path d="m105.929688 485.515625h-52.964844c-4.871094 0-8.828125-3.953125-8.828125-8.824219 0-4.875 3.957031-8.828125 8.828125-8.828125h52.964844c4.875 0 8.828124 3.953125 8.828124 8.828125 0 4.871094-3.953124 8.824219-8.828124 8.824219zm0 0"/><path d="m105.929688 397.242188h-52.964844c-4.871094 0-8.828125-3.957032-8.828125-8.828126 0-4.875 3.957031-8.828124 8.828125-8.828124h52.964844c4.875 0 8.828124 3.953124 8.828124 8.828124 0 4.871094-3.953124 8.828126-8.828124 8.828126zm0 0"/></g><path d="m176.550781 317.792969c-58.410156 0-105.929687-47.519531-105.929687-105.929688 0-58.414062 47.519531-105.933593 105.929687-105.933593 58.414063 0 105.933594 47.519531 105.933594 105.933593 0 58.410157-47.519531 105.929688-105.933594 105.929688zm0-194.207031c-48.675781 0-88.273437 39.601562-88.273437 88.277343s39.597656 88.273438 88.273437 88.273438 88.277344-39.597657 88.277344-88.273438-39.601563-88.277343-88.277344-88.277343zm0 0" fill="#a09893"/><path d="m176.550781 247.171875c-19.472656 0-35.308593-15.835937-35.308593-35.308594 0-19.476562 15.835937-35.3125 35.308593-35.3125 19.472657 0 35.3125 15.835938 35.3125 35.3125 0 19.472657-15.839843 35.308594-35.3125 35.308594zm0-52.964844c-9.734375 0-17.652343 7.917969-17.652343 17.65625 0 9.734375 7.917968 17.652344 17.652343 17.652344 9.738281 0 17.65625-7.917969 17.65625-17.652344 0-9.738281-7.917969-17.65625-17.65625-17.65625zm0 0" fill="#a09893"/><path d="m114.757812 220.691406c-4.871093 0-8.828124-3.957031-8.828124-8.828125 0-38.941406 31.683593-70.621093 70.621093-70.621093 4.875 0 8.828125 3.953124 8.828125 8.828124 0 4.871094-3.953125 8.828126-8.828125 8.828126-29.210937 0-52.964843 23.753906-52.964843 52.964843 0 4.871094-3.953126 8.828125-8.828126 8.828125zm0 0" fill="#a09893"/><path d="m176.550781 282.484375c-4.871093 0-8.828125-3.957031-8.828125-8.828125 0-4.875 3.957032-8.828125 8.828125-8.828125 29.210938 0 52.964844-23.753906 52.964844-52.964844 0-4.875 3.957031-8.828125 8.828125-8.828125 4.875 0 8.828125 3.953125 8.828125 8.828125 0 38.9375-31.683594 70.621094-70.621094 70.621094zm0 0" fill="#a09893"/></svg>