<svg height="424pt" viewBox="0 -15 424.05753 424" width="424pt" xmlns="http://www.w3.org/2000/svg"><path d="m217.691406 351.039062c2.21875-21.929687 11.257813-53.230468 41.71875-78.449218.859375-.859375 22.828125-21.101563 70.640625-21.101563h1.300781v-51.257812l35.320313 35.136719 50.386719 50.140624-85.707032 86.152344v-52.121094c-13.363281-2.148437-66.773437-6.03125-106.402343 59.871094l-5.160157 8.617188-1.730468-9.910156c-1.246094-8.976563-1.371094-18.070313-.367188-27.078126zm0 0" fill="#6fe3ff"/><path d="m367 141.988281v93.050781l-.328125.328126-35.320313-35.136719v51.257812h-1.300781c-47.8125 0-69.78125 20.242188-70.640625 21.101563-30.460937 25.21875-39.5 56.519531-41.71875 78.449218h-166.242187c22.21875.003907 40.230469-18.003906 40.230469-40.21875v-168.832031c0-22.214843 18.007812-40.222656 40.21875-40.21875h194.871093c22.21875-.007812 40.230469 18.003907 40.230469 40.21875zm0 0" fill="#e48e66"/><path d="m317.671875 93.578125v8.191406h-185.773437c-22.210938-.003906-40.21875 18.003907-40.21875 40.21875v168.832031c0 22.214844-18.011719 40.222657-40.230469 40.21875h-4.230469c-22.214844.003907-40.222656-18.003906-40.21875-40.21875v-263.570312c0-22.214844 18.007812-40.222656 40.21875-40.222656h90.242188c11.292968.003906 22.070312 4.753906 29.6875 13.089844l27.390624 29.960937c1.902344 2.085937 4.597657 3.273437 7.421876 3.269531h75.488281c22.214843.003906 40.222656 18.015625 40.222656 40.230469zm0 0" fill="#f8ec7d"/><path d="m374 232.789062v-90.800781c-.03125-26.070312-21.160156-47.195312-47.230469-47.21875h-2.097656v-1.191406c-.027344-26.070313-21.152344-47.199219-47.222656-47.230469h-75.488281c-.859376 0-1.675782-.359375-2.253907-.992187l-27.390625-29.957031c-8.953125-9.78125-21.597656-15.3554692-34.855468-15.3710942h-90.242188c-26.066406.03125-47.1875 21.1562502-47.21875 47.2226562v263.570312c.03125 26.066407 21.152344 47.1875 47.21875 47.21875h162.957031c-.335937 6.976563-.027343 13.972657.929688 20.894532l.007812.0625c.015625.109375.03125.21875.050781.324218l1.730469 9.914063c.503907 2.878906 2.746094 5.140625 5.617188 5.675781 2.875.53125 5.78125-.777344 7.28125-3.285156l5.152343-8.609375c32.800782-54.535156 74.675782-58.59375 93.402344-57.238281v45.882812c0 2.832032 1.707032 5.386719 4.328125 6.46875 2.621094 1.082032 5.632813.476563 7.632813-1.53125l85.710937-86.152344c2.726563-2.738281 2.714844-7.171874-.023437-9.898437zm-326.78125 111.25c-18.335938-.019531-33.199219-14.882812-33.21875-33.21875v-263.570312c.019531-18.339844 14.882812-33.199219 33.21875-33.222656h90.242188c9.328124.011718 18.222656 3.933594 24.523437 10.8125l27.375 29.949218c3.230469 3.539063 7.804687 5.558594 12.601563 5.558594h75.488281c18.339843.023438 33.203125 14.890625 33.222656 33.230469v1.191406h-178.773437c-26.066407.027344-47.1875 21.152344-47.21875 47.21875v168.832031c-.023438 18.339844-14.890626 33.199219-33.230469 33.21875zm164.300781 0h-126.542969c8.78125-8.824218 13.707032-20.769531 13.703126-33.21875v-168.832031c.019531-18.335937 14.878906-33.199219 33.21875-33.21875h194.871093c18.339844.015625 33.207031 14.878907 33.230469 33.21875v76.871094l-23.710938-23.59375c-2.003906-1.992187-5.015624-2.585937-7.625-1.5-2.613281 1.085937-4.3125 3.636719-4.3125 6.464844v44.351562c-44.472656 1.476563-66.453124 19.925781-69.515624 22.707031-23.542969 19.253907-39 46.644532-43.316407 76.75zm126.832031 10.660157v-35.160157c0-3.4375-2.496093-6.363281-5.886718-6.910156-15.746094-2.238281-31.800782-.617187-46.777344 4.71875-24.027344 8.417969-44.695312 25.320313-61.550781 50.3125-.199219-5.3125-.023438-10.628906.519531-15.917968 2.078125-20.558594 10.574219-50.042969 39.21875-73.761719.148438-.121094.292969-.25.429688-.386719.199218-.191406 20.597656-19.101562 65.746093-19.101562h1.300781c3.863282 0 7-3.132813 7-7v-34.425782l23.378907 23.261719 45.429687 45.199219zm0 0" fill="#63316d"/></svg>