<?xml version="1.0" encoding="iso-8859-1"?>
<!-- Generator: Adobe Illustrator 19.0.0, SVG Export Plug-In . SVG Version: 6.00 Build 0)  -->
<svg version="1.1" id="Layer_1" xmlns="http://www.w3.org/2000/svg" xmlns:xlink="http://www.w3.org/1999/xlink" x="0px" y="0px"
	 viewBox="0 0 512.001 512.001" style="enable-background:new 0 0 512.001 512.001;" xml:space="preserve">
<polygon style="fill:#7E8488;" points="467.123,81.824 467.123,430.176 430.177,430.176 430.177,472.401 292.947,472.401 
	292.947,430.176 256.001,430.176 219.054,430.176 219.054,472.401 81.824,472.401 81.824,430.176 44.878,430.176 44.878,81.824 
	81.824,81.824 81.824,44.877 219.054,44.877 219.054,81.824 256.001,81.824 292.947,81.824 292.947,44.877 430.177,44.877 
	430.177,81.824 "/>
<g>
	<polygon style="fill:#AFB6BB;" points="504.07,430.176 504.07,504.069 430.177,504.069 430.177,472.401 430.177,430.176 
		467.123,430.176 	"/>
	<polygon style="fill:#AFB6BB;" points="504.07,7.931 504.07,81.824 467.123,81.824 430.177,81.824 430.177,44.877 430.177,7.931 	
		"/>
	<polygon style="fill:#AFB6BB;" points="292.947,472.401 292.947,504.069 219.054,504.069 219.054,472.401 219.054,430.176 
		256.001,430.176 292.947,430.176 	"/>
	<polygon style="fill:#AFB6BB;" points="292.947,44.877 292.947,81.824 256.001,81.824 219.054,81.824 219.054,44.877 
		219.054,7.931 292.947,7.931 	"/>
	<polygon style="fill:#AFB6BB;" points="81.824,472.401 81.824,504.069 7.931,504.069 7.931,430.176 44.878,430.176 81.824,430.176 
			"/>
	<polygon style="fill:#AFB6BB;" points="81.824,44.877 81.824,81.824 44.878,81.824 7.931,81.824 7.931,7.931 81.824,7.931 	"/>
</g>
<path style="fill:#6A6F72;" d="M132.692,44.877H81.824v36.947H44.878v348.353h36.947V472.4h137.23v-42.224h36.947h36.947V472.4
	h137.23v-42.224h36.947v-22.665C297.315,360.134,166.499,219.953,132.692,44.877z"/>
<g>
	<rect x="34.321" y="36.947" style="fill:#FFFFFF;" width="21.113" height="15.861"/>
	<rect x="34.321" y="459.188" style="fill:#FFFFFF;" width="21.113" height="15.861"/>
	<rect x="245.44" y="459.188" style="fill:#FFFFFF;" width="21.113" height="15.861"/>
	<rect x="245.44" y="36.947" style="fill:#FFFFFF;" width="21.113" height="15.861"/>
	<rect x="456.566" y="36.947" style="fill:#FFFFFF;" width="21.113" height="15.861"/>
	<rect x="456.566" y="459.188" style="fill:#FFFFFF;" width="21.113" height="15.861"/>
</g>
<path style="fill:#FFD311;" d="M303.503,130.384l95.006,258.626h-79.171l-26.39-84.449h-36.947h-36.947l-26.391,84.449h-79.171
	l95.006-258.626h47.503C256.002,130.384,303.503,130.384,303.503,130.384z M292.947,257.057l-21.113-63.337h-31.669l-21.113,63.337
	H292.947z"/>
<polygon style="fill:#FAB91C;" points="219.054,257.057 240.167,193.721 256.001,193.721 256.001,130.384 208.498,130.384 
	113.493,389.01 192.664,389.01 219.054,304.56 256.001,304.56 256.001,257.057 "/>
<path d="M512.001,89.754V0h-89.754v36.947H300.878V0h-89.754v36.947H89.755V0H0.001v89.754h36.947v332.492H0.001v89.754h89.754
	v-31.669h121.368v31.669h89.754v-31.669h121.368v31.669h89.754v-89.754h-36.947V89.754H512.001z M438.109,15.861h58.032v58.032
	h-58.032V15.861z M226.985,15.861h58.032v58.032h-58.032L226.985,15.861L226.985,15.861z M15.862,15.861h58.032v58.032H15.862
	V15.861z M73.894,496.139H15.862v-58.032h58.032C73.894,438.107,73.894,496.139,73.894,496.139z M285.016,496.139h-58.032v-58.032
	h58.032V496.139z M496.139,496.139h-58.032v-58.032h58.032V496.139z M459.193,422.246h-36.945v42.224H300.878v-42.224h-89.754
	v42.224H89.755v-42.224H52.808V89.754h36.947V52.808h121.368v36.947h89.754V52.808h121.368v36.947h36.945v332.491H459.193z"/>
<path d="M202.962,122.453L102.13,396.94h96.364l26.39-84.449h62.233l26.39,84.449h96.363L309.04,122.453
	C309.04,122.453,202.962,122.453,202.962,122.453z M325.168,381.079l-26.39-84.449h-85.553l-26.39,84.449h-61.979l89.179-242.764
	h83.933l89.179,242.764H325.168z"/>
<path d="M234.451,185.79l-26.4,79.198h95.898l-26.399-79.198H234.451z M230.058,249.127l15.825-47.475h20.237l15.825,47.475H230.058
	z"/>
<g>
</g>
<g>
</g>
<g>
</g>
<g>
</g>
<g>
</g>
<g>
</g>
<g>
</g>
<g>
</g>
<g>
</g>
<g>
</g>
<g>
</g>
<g>
</g>
<g>
</g>
<g>
</g>
<g>
</g>
</svg>
