<svg height="401pt" viewBox="0 -11 401.92011 401" width="401pt" xmlns="http://www.w3.org/2000/svg"><path d="m395 320.929688c.683594 23.4375-17.761719 42.992187-41.203125 43.679687l-290.488281 8.5c23.4375-.6875 41.882812-20.242187 41.199218-43.679687l-5.210937-178.140626c-.6875-23.4375 17.753906-42.996093 41.191406-43.679687l196.011719-5.730469 9.597656-.28125c23.441406-.6875 43.003906 17.757813 43.691406 41.199219zm0 0" fill="#e48e66"/><path d="m336.25 93.238281.25 8.640625-196.011719 5.730469c-23.4375.683594-41.878906 20.242187-41.191406 43.679687l5.210937 178.140626c.683594 23.4375-17.761718 42.992187-41.199218 43.679687l-4.46875.128906c-23.441406.6875-43-17.757812-43.683594-41.199219l-8.136719-278.089843c-.6875-23.441407 17.757813-42.996094 41.199219-43.679688l95.210938-2.792969c11.917968-.347656 23.433593 4.328126 31.726562 12.890626l29.832031 30.78125c2.074219 2.140624 4.953125 3.308593 7.929688 3.21875l79.648437-2.328126c23.4375-.679687 42.992188 17.761719 43.683594 41.199219zm0 0" fill="#f8ec7d"/><g fill="#63316d"><path d="m22.15625 331.839844-.855469-29.191406c-.113281-3.863282-3.339843-6.90625-7.203125-6.792969-3.863281.113281-6.90625 3.339843-6.792968 7.203125l.855468 29.1875c.238282 8.113281 2.464844 16.039062 6.480469 23.089844 1.921875 3.355468 6.195313 4.519531 9.554687 2.601562 3.355469-1.917969 4.519532-6.195312 2.597657-9.550781-2.878907-5.054688-4.46875-10.734375-4.636719-16.546875zm0 0"/><path d="m92.679688 15.96875c3.863281-.113281 6.90625-3.339844 6.792968-7.203125-.113281-3.863281-3.339844-6.90625-7.203125-6.792969l-44.257812 1.300782c-2.21875.066406-4.429688.277343-6.617188.636718-3.816406.625-6.402343 4.226563-5.777343 8.039063.625 3.816406 4.226562 6.402343 8.042968 5.777343 1.574219-.257812 3.167969-.414062 4.761719-.457031zm0 0"/><path d="m137.917969 100.738281c-19.949219 1.492188-37.019531 14.898438-43.199219 33.929688-1.203125 3.671875.804688 7.625 4.476562 8.828125 3.675782 1.199218 7.628907-.804688 8.828126-4.480469 4.429687-13.636719 16.664062-23.246094 30.964843-24.320313 3.855469-.292968 6.742188-3.660156 6.445313-7.511718-.296875-3.855469-3.660156-6.742188-7.515625-6.445313zm0 0"/><path d="m318.167969 95.410156-49.976563 1.460938c-3.867187.054687-6.957031 3.234375-6.902344 7.101562.054688 3.867188 3.234376 6.953125 7.101563 6.898438h.207031l49.980469-1.460938c3.859375-.117187 6.890625-3.339844 6.777344-7.199218-.113281-3.859376-3.328125-6.898438-7.1875-6.792969zm0 0"/><path d="m172.753906 27.945312c1.734375 1.835938 4.316406 2.59375 6.765625 1.988282 2.449219-.601563 4.382813-2.476563 5.0625-4.90625.679688-2.425782.003907-5.035156-1.773437-6.824219l-2.625-2.703125c-9.328125-9.589844-22.132813-15.011719-35.507813-15.039062-.484375 0-.964843.007812-1.453125.019531l-10.96875.320312c-3.867187.113281-6.90625 3.339844-6.792968 7.203125.113281 3.863282 3.335937 6.90625 7.203124 6.792969l10.960938-.320313c9.949219-.261718 19.554688 3.640626 26.507812 10.761719zm0 0"/><path d="m293.007812 359.382812-49.980468 1.464844c-3.863282.054688-6.953125 3.230469-6.898438 7.097656.054688 3.867188 3.234375 6.957032 7.101563 6.902344h.207031l49.980469-1.464844c3.863281-.113281 6.90625-3.335937 6.792969-7.203124-.113282-3.867188-3.335938-6.910157-7.203126-6.796876zm0 0"/><path d="m203.042969 362.015625-49.976563 1.460937c-3.867187.058594-6.957031 3.234376-6.902344 7.101563.054688 3.867187 3.234376 6.957031 7.101563 6.898437h.207031l49.980469-1.460937c2.503906-.066406 4.777344-1.46875 5.96875-3.671875 1.1875-2.203125 1.109375-4.875-.207031-7.003906s-3.667969-3.394532-6.171875-3.316406zm0 0"/><path d="m95.671875 266.769531 1.460937 49.980469c.113282 3.78125 3.210938 6.789062 6.996094 6.792969h.207032c3.863281-.113281 6.90625-3.335938 6.792968-7.199219l-1.460937-49.980469c-.070313-2.5-1.46875-4.777343-3.671875-5.964843-2.203125-1.191407-4.875-1.113282-7.003906.203124-2.132813 1.316407-3.398438 3.667969-3.320313 6.171876zm0 0"/><path d="m375.964844 348.808594c-6.207032 5.445312-14.117188 8.558594-22.371094 8.796875l-20.605469.601562c-3.867187.054688-6.957031 3.234375-6.902343 7.101563.054687 3.863281 3.234374 6.953125 7.101562 6.898437h.207031l20.601563-.601562c11.515625-.339844 22.554687-4.683594 31.210937-12.289063 2.902344-2.554687 3.1875-6.976562.632813-9.878906-2.554688-2.902344-6.976563-3.183594-9.878906-.628906zm0 0"/><path d="m393.253906 261.285156c-3.863281.113282-6.90625 3.335938-6.792968 7.199219l1.460937 49.980469c.113281 3.78125 3.210937 6.792968 6.996094 6.792968h.207031c3.863281-.113281 6.902344-3.335937 6.792969-7.199218l-1.460938-49.976563c-.125-3.859375-3.34375-6.894531-7.203125-6.796875zm0 0"/><path d="m113.082031 364.648438-15.527343.453124c1.855468-1.902343 3.550781-3.953124 5.074218-6.132812 1.464844-2.046875 1.714844-4.726562.65625-7.011719-1.058594-2.28125-3.265625-3.824219-5.773437-4.03125-2.507813-.207031-4.9375.945313-6.359375 3.023438-6.378906 9.230469-16.78125 14.859375-28 15.160156h-.070313l-4.449219.128906c-1.652343.050781-3.304687-.015625-4.945312-.195312-3.816406-.375-7.226562 2.390625-7.644531 6.207031-.417969 3.8125 2.3125 7.25 6.121093 7.710938 1.792969.199218 3.597657.296874 5.398438.300781.492188 0 .988281-.007813 1.476562-.023438l4.472657-.128906h.050781l49.925781-1.460937c3.859375-.121094 6.894531-3.34375 6.78125-7.203126-.113281-3.859374-3.328125-6.898437-7.1875-6.792968zm0 0"/><path d="m99.835938 169.605469c-3.867188.113281-6.90625 3.335937-6.792969 7.203125l1.464843 49.980468c.109376 3.78125 3.207032 6.792969 6.992188 6.792969h.210938c3.863281-.113281 6.902343-3.335937 6.792968-7.199219l-1.464844-49.976562c-.125-3.863281-3.34375-6.898438-7.203124-6.800781zm0 0"/><path d="m228.207031 98.039062-49.976562 1.460938c-3.867188.054688-6.957031 3.230469-6.902344 7.097656.054687 3.867188 3.234375 6.957032 7.101563 6.902344h.207031l49.980469-1.464844c3.863281-.109375 6.90625-3.335937 6.792968-7.203125-.109375-3.863281-3.335937-6.90625-7.203125-6.792969zm0 0"/><path d="m392.285156 235.300781h.207032c3.863281-.113281 6.90625-3.335937 6.792968-7.199219l-1.460937-49.980468c-.113281-3.863282-3.335938-6.902344-7.203125-6.792969-3.863282.113281-6.902344 3.339844-6.789063 7.203125l1.460938 49.980469c.113281 3.78125 3.210937 6.785156 6.992187 6.789062zm0 0"/><path d="m390.355469 145.292969c3.832031-.515625 6.523437-4.035157 6.007812-7.867188-2.621093-19.839843-16.980469-36.121093-36.335937-41.199219-2.421875-.65625-5.007813.035157-6.78125 1.8125-1.773438 1.773438-2.460938 4.363282-1.800782 6.785157.664063 2.421875 2.570313 4.304687 5 4.933593 13.871094 3.640626 24.164063 15.3125 26.042969 29.53125.242188 1.839844 1.210938 3.507813 2.6875 4.636719 1.476563 1.128907 3.339844 1.621094 5.179688 1.371094zm0 0"/><path d="m295.167969 45.039062c-2.519531-.097656-4.894531 1.167969-6.21875 3.308594-1.328125 2.144532-1.402344 4.832032-.191407 7.042969 1.210938 2.210937 3.511719 3.601563 6.035157 3.640625 14.335937.363281 27.035156 9.355469 32.136719 22.757812 1.390624 3.597657 5.429687 5.386719 9.03125 4.007813 3.601562-1.382813 5.40625-5.414063 4.039062-9.019531-7.121094-18.695313-24.832031-31.234375-44.832031-31.738282zm0 0"/><path d="m7.863281 89.945312h.207031c3.863282-.113281 6.90625-3.335937 6.792969-7.203124l-.847656-28.992188c-.011719-.351562-.015625-.703125-.015625-1.050781-.015625-5.515625 1.273438-10.960938 3.757812-15.886719 1.734376-3.453125.34375-7.660156-3.109374-9.398438-3.453126-1.734374-7.664063-.34375-9.398438 3.109376-3.472656 6.875-5.2695312 14.472656-5.25 22.175781 0 .484375.0078125.96875.0195312 1.457031l.8515628 29c.113281 3.78125 3.210937 6.785156 6.992187 6.789062zm0 0"/><path d="m212.714844 47.371094h-.117188c-.863281 0-1.703125-.3125-2.355468-.878906-1.878907-1.683594-4.519532-2.222657-6.910157-1.414063s-4.160156 2.839844-4.632812 5.320313c-.472657 2.476562.425781 5.019531 2.351562 6.652343 3.199219 2.785157 7.304688 4.320313 11.546875 4.320313.195313 0 .386719 0 .527344-.007813l42.074219-1.230469c3.859375-.121093 6.894531-3.34375 6.78125-7.203124-.113281-3.859376-3.328125-6.898438-7.1875-6.792969zm0 0"/><path d="m13.128906 269.867188h.210938c3.863281-.113282 6.902344-3.335938 6.789062-7.199219l-1.460937-49.980469c-.113281-3.863281-3.339844-6.90625-7.203125-6.792969-3.863282.113281-6.90625 3.339844-6.792969 7.203125l1.464844 49.980469c.113281 3.78125 3.210937 6.785156 6.992187 6.789063zm0 0"/><path d="m10.496094 179.90625h.207031c3.863281-.113281 6.90625-3.335938 6.792969-7.203125l-1.460938-49.976563c-.113281-3.863281-3.339844-6.90625-7.203125-6.792968-3.863281.113281-6.90625 3.339844-6.792969 7.203125l1.46875 49.972656c.109376 3.78125 3.207032 6.789063 6.988282 6.796875zm0 0"/></g></svg>