<?xml version="1.0" encoding="iso-8859-1"?>
<!-- Generator: Adobe Illustrator 19.0.0, SVG Export Plug-In . SVG Version: 6.00 Build 0)  -->
<svg version="1.1" id="Layer_1" xmlns="http://www.w3.org/2000/svg" xmlns:xlink="http://www.w3.org/1999/xlink" x="0px" y="0px"
	 viewBox="0 0 318.188 318.188" style="enable-background:new 0 0 318.188 318.188;" xml:space="preserve">
<g>
	<polygon style="fill:#E8E8E8;" points="227.321,7.5 40.342,7.5 40.342,310.688 277.846,310.688 277.846,58.025 	"/>
	<g>
		<path style="fill:#A4A9AD;" d="M157.803,70.242c-32.807,0-59.4,26.595-59.4,59.4c0,32.807,26.594,59.401,59.4,59.401
			c32.809,0,59.402-26.595,59.402-59.401C217.205,96.837,190.611,70.242,157.803,70.242z M157.803,144.021
			c-7.94,0-14.377-6.437-14.377-14.378c0-7.939,6.437-14.377,14.377-14.377c7.941,0,14.378,6.438,14.378,14.377
			C172.181,137.584,165.745,144.021,157.803,144.021z"/>
		<path style="fill:#FFFFFF;" d="M196.208,84.343l-29.112,34.339c1.62,1.375,2.926,3.103,3.811,5.064l41.063-18.481
			C208.315,97.16,202.902,90.023,196.208,84.343z"/>
		<path style="fill:#333E48;" d="M157.803,110.099c-10.794,0-19.544,8.751-19.544,19.544c0,10.795,8.75,19.545,19.544,19.545
			c10.795,0,19.545-8.75,19.545-19.545C177.348,118.85,168.598,110.099,157.803,110.099z M157.803,142.688
			c-7.204,0-13.044-5.84-13.044-13.045c0-7.203,5.84-13.044,13.044-13.044c7.205,0,13.045,5.841,13.045,13.044
			C170.848,136.848,165.008,142.688,157.803,142.688z"/>
	</g>
	<polygon style="fill:#333E48;" points="235.14,32.763 40.342,32.763 40.342,7.5 227.321,7.5 	"/>
	<polygon style="fill:#D1D3D3;" points="227.321,58.025 277.846,58.025 227.321,7.5 	"/>
	<path style="fill:#333E48;" d="M105.659,281.371h13.029v-47.979h-13.029V281.371z M283.149,52.723L232.625,2.197
		C231.218,0.79,229.311,0,227.321,0H40.342c-4.142,0-7.5,3.358-7.5,7.5v303.188c0,4.143,3.358,7.5,7.5,7.5h237.504
		c4.142,0,7.5-3.357,7.5-7.5V58.025C285.346,56.036,284.556,54.129,283.149,52.723z M234.821,25.606l24.918,24.919h-24.918
		L234.821,25.606L234.821,25.606z M47.842,15h171.979v10.263H47.842V15z M270.346,303.188H47.842V40.263h171.979v17.763
		c0,4.143,3.358,7.5,7.5,7.5h43.024v237.662H270.346z M189.475,232.637c-7.613,0-13.417,2.106-17.409,6.318
		c-3.993,4.211-5.989,10.31-5.989,18.295c0,8.073,2.007,14.222,6.021,18.443c4.015,4.223,9.785,6.334,17.312,6.334
		c7.636,0,13.434-2.1,17.394-6.301s5.94-10.338,5.94-18.41c0-8.096-1.97-14.232-5.907-18.411
		C202.897,234.727,197.11,232.637,189.475,232.637z M196.711,267.85c-1.586,2.254-4.02,3.381-7.302,3.381
		c-6.454,0-9.681-4.639-9.681-13.914c0-9.364,3.249-14.047,9.746-14.047c3.194,0,5.596,1.145,7.204,3.43
		c1.607,2.287,2.412,5.825,2.412,10.617C199.091,262.086,198.297,265.598,196.711,267.85z M141.167,243.959
		c0.766-0.591,1.991-0.887,3.675-0.887c3.26,0,7.133,1.029,11.617,3.086l3.971-10.01c-5.162-2.297-10.229-3.445-15.194-3.445
		c-5.623,0-10.042,1.236-13.258,3.708c-3.216,2.473-4.824,5.919-4.824,10.337c0,2.363,0.377,4.409,1.132,6.137
		c0.755,1.729,1.914,3.261,3.479,4.596c1.564,1.334,3.911,2.713,7.04,4.135c3.457,1.553,5.584,2.582,6.383,3.084
		c0.798,0.504,1.378,1.002,1.739,1.494s0.541,1.066,0.541,1.723c0,1.05-0.447,1.908-1.345,2.576s-2.309,1.001-4.234,1.001
		c-2.231,0-4.682-0.355-7.351-1.067c-2.669-0.71-5.24-1.7-7.712-2.969v11.551c2.341,1.116,4.594,1.898,6.76,2.347
		s4.846,0.673,8.041,0.673c3.828,0,7.165-0.64,10.009-1.92c2.844-1.279,5.021-3.073,6.531-5.382c1.51-2.308,2.264-4.95,2.264-7.925
		c0-3.238-0.803-5.924-2.412-8.058c-1.607-2.133-4.479-4.13-8.613-5.989c-4.311-1.969-6.953-3.325-7.926-4.069
		c-0.974-0.743-1.46-1.586-1.46-2.526C140.019,245.283,140.401,244.55,141.167,243.959z"/>
</g>
<g>
</g>
<g>
</g>
<g>
</g>
<g>
</g>
<g>
</g>
<g>
</g>
<g>
</g>
<g>
</g>
<g>
</g>
<g>
</g>
<g>
</g>
<g>
</g>
<g>
</g>
<g>
</g>
<g>
</g>
</svg>
