<?xml version="1.0" encoding="iso-8859-1"?>
<!-- Generator: Adobe Illustrator 19.0.0, SVG Export Plug-In . SVG Version: 6.00 Build 0)  -->
<svg version="1.1" id="Layer_1" xmlns="http://www.w3.org/2000/svg" xmlns:xlink="http://www.w3.org/1999/xlink" x="0px" y="0px"
	 viewBox="0 0 512 512" style="enable-background:new 0 0 512 512;" xml:space="preserve">
<path style="fill:#ECEDEF;" d="M100.641,0c-14.139,0-25.6,11.461-25.6,25.6v460.8c0,14.139,11.461,25.6,25.6,25.6h375.467
	c14.139,0,25.6-11.461,25.6-25.6V85.333L416.375,0H100.641z"/>
<path style="fill:#D9DCDF;" d="M441.975,85.333h59.733L416.375,0v59.733C416.375,73.872,427.836,85.333,441.975,85.333z"/>
<path style="fill:#C6CACF;" d="M399.308,42.667H75.041v153.6h324.267c4.713,0,8.533-3.821,8.533-8.533V51.2
	C407.841,46.487,404.02,42.667,399.308,42.667z"/>
<path style="fill:#68727E;" d="M382.241,179.2H18.843c-7.602,0-11.41-9.191-6.034-14.567L75.041,102.4L12.809,40.167
	C7.433,34.791,11.241,25.6,18.843,25.6h363.398c4.713,0,8.533,3.821,8.533,8.533v136.533
	C390.775,175.379,386.954,179.2,382.241,179.2z"/>
<g>
	<path style="fill:#FFFFFF;" d="M168.908,145.067c-4.713,0-8.533-3.821-8.533-8.533v-51.2c0-4.713,3.821-8.533,8.533-8.533
		c4.713,0,8.533,3.821,8.533,8.533v51.2C177.441,141.246,173.621,145.067,168.908,145.067z"/>
	<path style="fill:#FFFFFF;" d="M220.108,145.067h-25.6c-4.713,0-8.533-3.821-8.533-8.533s3.821-8.533,8.533-8.533h17.067v-8.533
		h-17.067c-4.713,0-8.533-3.821-8.533-8.533v-25.6c0-4.713,3.821-8.533,8.533-8.533h25.6c4.713,0,8.533,3.821,8.533,8.533
		s-3.821,8.533-8.533,8.533h-17.067v8.533h17.067c4.713,0,8.533,3.821,8.533,8.533v25.6
		C228.641,141.246,224.821,145.067,220.108,145.067z"/>
	<path style="fill:#FFFFFF;" d="M279.841,145.067h-34.133c-4.713,0-8.533-3.821-8.533-8.533v-51.2c0-4.713,3.821-8.533,8.533-8.533
		h34.133c4.713,0,8.533,3.821,8.533,8.533v51.2C288.375,141.246,284.555,145.067,279.841,145.067z M254.241,128h17.067V93.867
		h-17.067V128z"/>
</g>
<path style="fill:#D9DCDF;" d="M271.308,221.867c-61.267,0-110.933,49.667-110.933,110.933s49.666,110.933,110.933,110.933
	S382.241,394.066,382.241,332.8S332.575,221.867,271.308,221.867z M271.308,358.4c-14.139,0-25.6-11.461-25.6-25.6
	s11.461-25.6,25.6-25.6s25.6,11.461,25.6,25.6S285.447,358.4,271.308,358.4z"/>
<g>
	<path style="fill:#C6CACF;" d="M349.749,254.358l-60.339,60.339c4.633,4.633,7.498,11.033,7.498,18.102
		c0,14.139-11.461,25.6-25.6,25.6v85.333c61.267,0,110.933-49.667,110.933-110.933C382.241,302.166,369.825,274.433,349.749,254.358
		z"/>
	<path style="fill:#C6CACF;" d="M245.708,332.8c0-14.139,11.461-25.6,25.6-25.6v-85.333c-61.267,0-110.933,49.667-110.933,110.933
		c0,30.634,12.417,58.367,32.492,78.442l60.339-60.339C248.573,346.269,245.708,339.869,245.708,332.8z"/>
</g>
<path style="fill:#B3B9BF;" d="M271.308,256c-42.416,0-76.8,34.384-76.8,76.8c0,42.415,34.384,76.8,76.8,76.8s76.8-34.385,76.8-76.8
	C348.108,290.384,313.724,256,271.308,256z M271.308,358.4c-14.139,0-25.6-11.461-25.6-25.6s11.461-25.6,25.6-25.6
	s25.6,11.461,25.6,25.6S285.447,358.4,271.308,358.4z"/>
<path style="fill:#FF8C78;" d="M398.104,353.856c-2.159-3.629-6.77-4.957-10.527-3.027l-9.531,4.889l-22.447-59.86
	c-2.539-6.769-12.443-6.769-14.981,0l-19.991,53.311l-3.114-4.86c-3.087-4.818-10.353-4.834-13.458-0.022
	c-15.934,24.694-23.68,43.267-23.68,56.78c0,37.348,30.385,67.733,67.733,67.733s67.733-30.385,67.733-67.733
	C415.841,389.362,410.04,373.92,398.104,353.856z"/>
<path style="fill:#FFC44F;" d="M313.975,419.713c0-13.279,16.935-41.722,26.948-57.378c3.356-5.247,11.014-5.247,14.37,0
	c10.013,15.657,26.948,44.099,26.948,57.378c0,18.851-15.282,34.133-34.133,34.133S313.975,438.564,313.975,419.713z"/>
<g>
</g>
<g>
</g>
<g>
</g>
<g>
</g>
<g>
</g>
<g>
</g>
<g>
</g>
<g>
</g>
<g>
</g>
<g>
</g>
<g>
</g>
<g>
</g>
<g>
</g>
<g>
</g>
<g>
</g>
</svg>
