<?xml version="1.0" encoding="iso-8859-1"?>
<!-- Generator: Adobe Illustrator 18.0.0, SVG Export Plug-In . SVG Version: 6.00 Build 0)  -->
<!DOCTYPE svg PUBLIC "-//W3C//DTD SVG 1.1//EN" "http://www.w3.org/Graphics/SVG/1.1/DTD/svg11.dtd">
<svg version="1.1" id="Capa_1" xmlns="http://www.w3.org/2000/svg" xmlns:xlink="http://www.w3.org/1999/xlink" x="0px" y="0px"
	 viewBox="0 0 58 58" style="enable-background:new 0 0 58 58;" xml:space="preserve">
<g>
	<g>
		<path style="fill:#545E73;" d="M51.168,58H2.832C1.82,58,1,57.18,1,56.168V1.832C1,0.82,1.82,0,2.832,0h48.335
			C52.18,0,53,0.82,53,1.832v54.335C53,57.18,52.18,58,51.168,58z"/>
		<path style="fill:#ECF0F1;" d="M32.495,17h-10.99C19.572,17,18,15.428,18,13.495V12c0-0.553,0.447-1,1-1s1,0.447,1,1v1.495
			C20,14.325,20.675,15,21.505,15h10.99C33.325,15,34,14.325,34,13.495V12c0-0.553,0.447-1,1-1s1,0.447,1,1v1.495
			C36,15.428,34.428,17,32.495,17z"/>
		<path style="fill:#ECF0F1;" d="M32.495,46h-10.99C19.572,46,18,44.428,18,42.495V41c0-0.553,0.447-1,1-1s1,0.447,1,1v1.495
			C20,43.325,20.675,44,21.505,44h10.99C33.325,44,34,43.325,34,42.495V41c0-0.553,0.447-1,1-1s1,0.447,1,1v1.495
			C36,44.428,34.428,46,32.495,46z"/>
		<rect x="1" y="28" style="fill:#394050;" width="52" height="2"/>
	</g>
	<g>
		<circle style="fill:#D0E8F9;" cx="42.777" cy="42.796" r="9.796"/>
		<path style="fill:#EAF6FD;" d="M46.33,33.674L33.656,46.348c0.706,1.81,1.93,3.357,3.495,4.459L50.789,37.17
			C49.687,35.604,48.14,34.38,46.33,33.674z"/>
		<path style="fill:#B1D3EF;" d="M56.723,56.291l-5.97-6.244c1.746-1.919,2.82-4.458,2.82-7.251C53.573,36.843,48.731,32,42.777,32
			s-10.796,4.843-10.796,10.796s4.843,10.796,10.796,10.796c2.442,0,4.689-0.824,6.499-2.196l6.001,6.276
			c0.196,0.206,0.459,0.309,0.723,0.309c0.249,0,0.497-0.092,0.691-0.277C57.09,57.323,57.105,56.689,56.723,56.291z M33.982,42.796
			c0-4.85,3.946-8.796,8.796-8.796s8.796,3.946,8.796,8.796s-3.946,8.796-8.796,8.796S33.982,47.646,33.982,42.796z"/>
	</g>
</g>
<g>
</g>
<g>
</g>
<g>
</g>
<g>
</g>
<g>
</g>
<g>
</g>
<g>
</g>
<g>
</g>
<g>
</g>
<g>
</g>
<g>
</g>
<g>
</g>
<g>
</g>
<g>
</g>
<g>
</g>
</svg>
