<?xml version="1.0" encoding="iso-8859-1"?>
<!-- Generator: Adobe Illustrator 19.0.0, SVG Export Plug-In . SVG Version: 6.00 Build 0)  -->
<svg version="1.1" id="Layer_1" xmlns="http://www.w3.org/2000/svg" xmlns:xlink="http://www.w3.org/1999/xlink" x="0px" y="0px"
	 viewBox="0 0 512 512" style="enable-background:new 0 0 512 512;" xml:space="preserve">
<g>
	<path style="fill:#F7B239;" d="M315.564,172.164L315.564,172.164L315.564,172.164z"/>
	<path style="fill:#F7B239;" d="M467.47,260.157c-6.51-6.497-10.947-14.532-12.358-22.313c-1.348-7.438-5.365-14.786-10.934-20.825
		c-5.569-6.052-12.688-10.794-20.228-13.006l-94.383-27.733l62.132,62.132c6.248-2.441,13.619-1.144,18.673,3.908
		c6.802,6.802,6.802,17.838,0,24.64c-6.815,6.815-17.85,6.815-24.652,0c-5.042-5.042-6.337-12.409-3.904-18.654l-62.135-62.137
		l27.733,94.369c4.437,15.091,18.969,28.479,33.832,31.174c3.903,0.699,7.845,2.161,11.646,4.259
		c3.789,2.098,7.412,4.831,10.667,8.086l18.906,18.906l63.9-63.913L467.47,260.157z"/>
</g>
<path style="fill:#F95428;" d="M335.241,509.571H160.34v-13.985h160.915v-63.511h-79.609V79.925h80.915v99.231h-13.985V93.91
	h-52.944v324.179h79.609v91.482H335.241z M126.012,509.571H64.815v-91.482h80.314V93.91H91.482v85.245H0V2.43h400.057v52.285
	h-13.985V16.415H13.985v148.756h63.511V79.925h81.618v352.149H78.801v63.511h47.212V509.571z"/>
<path style="fill:#CCCCCC;" d="M507.474,294.121l-69.953,69.943c-6.034,6.034-15.817,6.034-21.853-0.001l-3.219-3.219
	c-6.034-6.034-6.034-15.819,0-21.853l3.021-3.021l63.9-63.913l3.021-3.021c6.034-6.034,15.819-6.034,21.853,0l3.231,3.231
	C513.509,278.302,513.509,288.086,507.474,294.121z"/>
<g>
</g>
<g>
</g>
<g>
</g>
<g>
</g>
<g>
</g>
<g>
</g>
<g>
</g>
<g>
</g>
<g>
</g>
<g>
</g>
<g>
</g>
<g>
</g>
<g>
</g>
<g>
</g>
<g>
</g>
</svg>
